<svg width="213" height="208" viewBox="0 0 213 208" fill="none" xmlns="http://www.w3.org/2000/svg">
<path d="M53.6226 118.506C55.8315 117.835 59.666 118.998 61.056 120.82C63.7662 124.371 63.0968 128.199 59.1178 131.171C55.8311 133.679 51.1545 134.366 49.7645 132.545C48.025 130.266 47.5547 126.084 48.6603 123.292C49.8455 120.519 51.0164 119.417 53.6226 118.506ZM6.1591 96.57C7.59472 103.831 10.7642 110.558 16.2932 117.803C21.2632 124.315 24.2738 127.057 30.7116 130.936C34.3836 133.173 36.3769 133.97 42.2286 135.414C48.9371 137.073 49.4303 137.276 51.6371 139.408C60.1502 147.757 75.8364 151.791 91.8484 149.795C106.311 147.985 126.202 140.291 136.865 132.363C140.518 129.639 141.331 128.826 141.206 128.051C140.915 126.615 140.155 126.905 134.149 130.555C120.164 139.215 104.113 145.105 90.2993 146.711C79.714 148.01 69.0775 146.563 61.1634 142.797C58.0117 141.242 52.9652 137.815 52.9497 137.183C52.9606 136.965 54.5043 136.35 56.3889 135.782C60.4028 134.522 62.2654 133.165 64.0493 130.354C65.9141 127.417 65.8701 124.005 63.8647 120.85C61.7977 117.677 60.563 116.671 57.7498 115.791C54.5437 114.776 51.6159 115.497 48.897 117.926C45.3016 121.169 44.3422 125.524 46.0504 130.484C46.515 131.853 46.7052 133.157 46.4101 133.382C45.6775 133.941 37.8325 131.7 34.1482 129.826C23.415 124.476 13.7365 112.701 9.10678 99.4408C8.16981 96.694 7.15707 94.3754 6.90536 94.2776C5.97993 93.8246 5.77296 94.4817 6.1591 96.57Z" fill="#FDFEFD"/>
<path d="M9.21386 109.96C10.8827 114.805 19.324 123.144 21.1556 121.747C22.0307 121.079 21.5803 120.489 14.4585 112.591C9.18946 106.742 7.91191 106.123 9.21386 109.96Z" fill="#FDFEFD"/>
<path d="M76.633 130.251C77.5338 131.431 83.3771 132.8 88.0763 132.966C94.2731 133.131 99.0855 131.842 106.063 128.03C109.262 126.314 110.371 125.193 109.672 124.278C109.113 123.545 107.452 123.879 102.644 125.681C94.0631 128.848 87.3238 129.933 80.566 129.117C76.668 128.63 75.6623 128.979 76.633 130.251Z" fill="#FDFEFD"/>
<path d="M174.974 113.143C178.198 111.987 194.405 104.804 195.432 104.019C196.41 103.338 195.248 105.529 192.308 110.011C190.598 112.539 187.379 117.814 185.133 121.686C182.917 125.534 180.909 128.79 180.685 128.96C180.278 129.271 179.1 127.643 172.84 118.154C171.663 116.379 170.874 114.839 171.098 114.668C171.281 114.529 173.057 113.817 174.974 113.143ZM179.816 101.301C193.688 100.004 195.992 99.9853 193.635 101.285C185.712 105.609 171.964 111.415 167.022 112.514C165.259 112.925 162.464 113.819 160.798 114.591C159.125 115.289 157.512 115.875 157.189 115.832C156.866 115.789 157.385 113.895 158.365 111.698C159.283 109.483 160.389 106.691 160.774 105.528L161.509 103.454L164.029 102.979C165.476 102.745 172.561 101.943 179.816 101.301ZM166.037 90.2085C170.848 91.5762 177.89 93.5448 181.672 94.5551C185.454 95.5653 188.77 96.5769 189.012 96.7464C189.465 97.0447 186.883 97.4376 171.045 99.4289C164.071 100.291 161.806 100.361 161.498 99.7265C158.092 92.3103 156.5 88.3248 156.866 88.0453C157.09 87.8744 161.195 88.8641 166.037 90.2085ZM152.84 86.9474C152.923 87.9631 154.38 91.3916 157.312 97.5113L159.358 101.859L155.635 109.176C151.338 117.576 150.946 118.729 151.886 119.96C152.996 121.415 155.162 121.067 161.037 118.386C164.123 116.964 166.873 115.8 167.237 115.812C167.995 115.813 170.866 119.596 175.257 126.405C179.368 132.784 179.901 133.166 182.201 131.411C183.005 130.797 187.311 124.773 191.715 118.031C196.179 111.307 200.685 104.615 201.799 103.121C204.171 99.9424 204.714 98.0792 203.671 97.0076C203.219 96.5634 200.091 95.7141 196.589 95.0701C193.086 94.4261 185.277 92.528 179.216 90.8098C160.727 85.6141 159.234 85.24 156.983 84.8647C154.732 84.4893 152.772 85.4862 152.84 86.9474Z" fill="#FDFEFD"/>
</svg>
