<svg width="20" height="22" viewBox="0 0 20 22" fill="none" xmlns="http://www.w3.org/2000/svg">
<g clip-path="url(#clip0_1_336)">
<g clip-path="url(#clip1_1_336)">
<g clip-path="url(#clip2_1_336)">
<path d="M17.0662 3.43801C16.1405 2.50525 15.039 1.76531 13.8255 1.26101C12.6119 0.756711 11.3104 0.498057 9.99625 0.500014C8.68175 0.497792 7.37987 0.756318 6.16596 1.26063C4.95205 1.76494 3.85022 2.50501 2.92425 3.43801C-0.97475 7.33601 -0.97475 13.681 2.92425 17.58C3.85033 18.5131 4.95233 19.2533 6.16642 19.7576C7.38051 20.2619 8.68258 20.5204 9.99725 20.518C11.3113 20.5201 12.6128 20.2616 13.8264 19.7575C15.0399 19.2534 16.1414 18.5136 17.0673 17.581C20.9663 13.683 20.9662 7.33801 17.0662 3.43801ZM10.1762 2.50901H9.81725C9.87825 2.50801 9.93625 2.50001 9.99725 2.50001C10.0582 2.50001 10.1152 2.50801 10.1762 2.50901ZM16.2383 15.509H13.9952L12.7372 18.025C11.8594 18.3483 10.9317 18.5152 9.99625 18.518C9.05905 18.5155 8.12958 18.3483 7.25025 18.024L5.99525 15.519H3.76025C2.93569 14.4939 2.37806 13.2804 2.13725 11.987L3.99525 9.50901L2.77925 7.07601C3.16836 6.25124 3.69562 5.49907 4.33825 4.85201C5.23918 3.94826 6.34324 3.27314 7.55825 2.88301L9.99525 4.50901L12.4332 2.88401C13.6482 3.27385 14.7522 3.94862 15.6533 4.85201C16.2952 5.49825 16.8222 6.24938 17.2113 7.07301L15.9952 9.50901L17.8533 11.987C17.6136 13.2762 17.0588 14.4862 16.2383 15.509Z" fill="white"/>
<path d="M6.49609 9.50977L7.99609 13.5098H11.9961L13.4961 9.50977L9.99609 7.00977L6.49609 9.50977Z" fill="white"/>
</g>
</g>
</g>
<defs>
<clipPath id="clip0_1_336">
<rect width="20" height="21" fill="white" transform="translate(0 0.5)"/>
</clipPath>
<clipPath id="clip1_1_336">
<rect width="20" height="21" fill="white" transform="translate(0 0.5)"/>
</clipPath>
<clipPath id="clip2_1_336">
<rect width="20" height="21" fill="white" transform="translate(0 0.5)"/>
</clipPath>
</defs>
</svg>
