<svg width="1280" height="290" viewBox="0 0 1280 290" fill="none" xmlns="http://www.w3.org/2000/svg">
<g clip-path="url(#clip0_1_257)">
<g clip-path="url(#clip1_1_257)">
<path d="M235.639 313.85V33.1538H354.155V71.966H292.818V147.858H344.798V187.71H292.818V313.85H235.639ZM341.55 313.85L395.956 33.1538H459.373L513.433 313.85H460.412L450.363 252.166H406.006L395.263 313.85H341.55ZM411.204 217.166H444.818L427.838 103.848L411.204 217.166ZM526.284 313.85V33.1538H566.136L628.513 179.393V33.1538H675.642V313.85H637.523L575.146 158.601V313.85H526.284ZM701.53 313.85L706.38 33.1538H767.03L801.68 210.235L838.76 33.1538H897.33L902.18 313.85H860.59L856.09 123.6L820.4 313.85H784.7L747.28 122.214L743.46 313.85H701.53ZM914.07 313.85L968.48 33.1538H1031.89L1085.95 313.85H1032.93L1022.88 252.166H978.53L967.78 313.85H914.07ZM983.72 217.166H1017.34L1000.36 103.848L983.72 217.166ZM1109.91 313.85V75.778H1066.59V33.1538H1210.06V75.778H1167.44V313.85H1109.91ZM1295.53 317.662C1274.74 317.662 1258.22 313.734 1245.98 305.88C1233.96 298.025 1225.53 287.167 1220.68 273.305C1215.83 259.212 1213.4 242.925 1213.4 224.443V123.6C1213.4 104.194 1215.83 87.56 1220.68 73.699C1225.53 59.6063 1233.96 48.7481 1245.98 41.1242C1258.22 33.5004 1274.74 29.6885 1295.53 29.6885C1315.63 29.6885 1331.34 33.0383 1342.66 39.7381C1354.21 46.4378 1362.3 55.9099 1366.92 68.154C1371.77 80.399 1374.2 94.607 1374.2 110.778V134.343H1318.75V108.006C1318.75 101.537 1318.4 95.531 1317.71 89.986C1317.02 84.211 1315.05 79.59 1311.82 76.125C1308.82 72.428 1303.5 70.58 1295.88 70.58C1288.25 70.58 1282.71 72.428 1279.24 76.125C1275.78 79.821 1273.58 84.673 1272.66 90.679C1271.74 96.455 1271.27 102.924 1271.27 110.085V237.612C1271.27 245.466 1271.85 252.397 1273.01 258.404C1274.39 264.179 1276.82 268.684 1280.28 271.919C1283.98 274.922 1289.18 276.424 1295.88 276.424C1303.27 276.424 1308.47 274.691 1311.47 271.226C1314.71 267.529 1316.67 262.678 1317.36 256.671C1318.29 250.664 1318.75 244.311 1318.75 237.612V210.235H1374.2V233.453C1374.2 249.856 1371.89 264.411 1367.27 277.117C1362.65 289.592 1354.67 299.526 1343.35 306.919C1332.03 314.081 1316.09 317.662 1295.53 317.662ZM1394.2 313.85V33.1538H1451.38V148.551H1500.94V33.1538H1558.12V313.85H1500.94V189.443H1451.38V313.85H1394.2Z" fill="#F5F5F5"/>
<path d="M7.81403 43.535C-7.15198 28.4553 -24.96 16.493 -44.579 8.34014C-64.198 0.187342 -85.239 -3.99426 -106.484 -3.96266C-127.735 -3.99856 -148.782 0.180939 -168.407 8.33394C-188.032 16.4869 -205.845 28.4514 -220.815 43.535C-283.849 106.553 -283.849 209.131 -220.815 272.164C-205.843 287.25 -188.028 299.216 -168.4 307.369C-148.772 315.522 -127.722 319.7 -106.468 319.662C-85.224 319.696 -64.183 315.517 -44.564 307.367C-24.945 299.217 -7.13699 287.257 7.83002 272.181C70.864 209.163 70.864 106.585 7.81403 43.535ZM-103.574 28.5162H-109.378C-108.392 28.5 -107.454 28.3707 -106.468 28.3707C-105.482 28.3707 -104.56 28.5 -103.574 28.5162ZM-5.57196 238.683H-41.834L-62.171 279.359C-76.363 284.586 -91.361 287.283 -106.484 287.329C-121.636 287.288 -136.662 284.584 -150.878 279.342L-171.167 238.845H-207.3C-220.63 222.272 -229.645 202.654 -233.538 181.744L-203.5 141.683L-223.159 102.35C-216.869 89.0156 -208.344 76.8556 -197.955 66.3946C-183.39 51.7839 -165.541 40.8695 -145.899 34.5625L-106.5 60.8495L-67.086 34.5787C-47.445 40.881 -29.596 51.7898 -15.029 66.3946C-4.65097 76.8416 3.86801 88.9856 10.158 102.301L-9.49997 141.683L20.537 181.744C16.663 202.587 7.69403 222.147 -5.57196 238.683Z" fill="white"/>
</g>
</g>
<defs>
<clipPath id="clip0_1_257">
<rect width="1280" height="264.7" fill="white" transform="translate(0 25)"/>
</clipPath>
<clipPath id="clip1_1_257">
<rect width="1280" height="264.7" fill="white" transform="translate(0 25)"/>
</clipPath>
</defs>
</svg>
