<svg width="137" height="109" viewBox="0 0 137 109" fill="none" xmlns="http://www.w3.org/2000/svg">
<g clip-path="url(#clip0_1_293)">
<path d="M18.2769 2.12284C18.2769 9.05532 23.5914 27.1801 25.578 27.1801C27.0525 27.1801 27.1242 25.6338 25.6497 18.1894C23.5812 7.57052 21.1543 0.351312 19.6081 0.0543531C18.5738 -0.170926 18.2769 0.279633 18.2769 2.12284Z" fill="#FDFEFD"/>
<path d="M42.7398 6.31934C34.5581 16.7129 29.479 28.6527 33.3088 28.6527C35.0803 28.6527 47.0201 8.23422 47.0201 5.05982C47.0201 2.7763 45.1769 3.29854 42.7398 6.31934Z" fill="#FDFEFD"/>
<path d="M4.26855 18.8531C4.26855 21.6588 19.1575 33.9673 20.7038 32.4211C21.738 31.3868 20.2634 29.2569 15.1742 24.608C8.24167 18.1977 4.26855 16.0473 4.26855 18.8531Z" fill="#FDFEFD"/>
<path d="M49.8158 26.5129C46.6414 28.2127 42.5249 31.0901 40.61 32.9333C37.4356 35.9541 37.2103 36.3228 38.6132 36.6197C40.2311 36.845 54.0142 29.1753 57.1886 26.2261C61.2436 22.4681 57.3319 22.6012 49.8158 26.5129Z" fill="#FDFEFD"/>
<path d="M0.213284 35.2998C-0.667356 36.7027 1.23728 38.0236 4.852 38.464C8.97872 39.0579 22.9154 41.5564 25.8645 42.2937C27.4107 42.734 27.851 42.5907 27.851 41.71C27.851 38.3923 16.4232 34.5625 6.6952 34.5625C3.30576 34.5625 0.438564 34.9312 0.213284 35.2998Z" fill="#FDFEFD"/>
<path d="M29.3257 36.252C29.3257 36.8459 31.3225 42.3653 33.6777 48.6322C41.3474 68.4568 45.9862 85.5576 49.6726 107.676C51.5874 119.175 52.3964 121.828 53.871 121.316C55.1202 120.875 54.7516 105.546 53.277 95.9614C51.8742 86.899 47.5324 71.1192 43.7743 61.3195C38.0297 46.2872 29.3257 31.1627 29.3257 36.252Z" fill="#FDFEFD"/>
<path d="M62.5752 45.4667C61.6946 47.1665 59.0322 66.172 58.3666 76.0536C57.7726 84.307 58.8069 86.2219 60.6501 80.1086C61.756 76.1969 64.7051 52.7678 64.7051 47.6785C64.7051 44.5041 63.6811 43.4801 62.5752 45.4667Z" fill="#FDFEFD"/>
<path d="M105.982 2.40922C104.21 7.20154 101.64 18.4041 101.415 22.3875C101.272 26.0022 101.415 26.8009 102.449 27.0262C103.852 27.3231 105.173 23.6367 107.457 13.5401C109.228 5.28666 109.371 0.637695 107.825 0.637695C107.16 0.637695 106.351 1.44666 105.982 2.40922Z" fill="#FDFEFD"/>
<path d="M122.797 10.5984C116.315 15.3907 108.205 25.047 108.205 27.9961C108.205 31.4572 110.345 30.0646 119.407 20.48C124.568 15.022 128.848 10.0044 128.848 9.26713C128.848 7.28057 126.626 7.79257 122.797 10.5984Z" fill="#FDFEFD"/>
<path d="M79.4604 10.6712C79.4604 13.9173 90.0793 28.6526 92.4345 28.6526C94.0524 28.6526 93.694 26.6661 91.1852 21.9454C88.9017 17.6651 81.4572 8.74609 80.126 8.74609C79.7574 8.74609 79.4604 9.63697 79.4604 10.6712Z" fill="#FDFEFD"/>
<path d="M112.628 34.3271C112.628 34.7675 113.078 35.4331 113.59 35.8734C115.137 37.2046 134.818 43.5431 135.924 43.1028C137.992 42.2939 135.985 40.594 129.503 37.5015C124.271 34.9927 121.772 34.2555 117.717 33.9585C114.543 33.7332 112.628 33.8868 112.628 34.3271Z" fill="#FDFEFD"/>
<path d="M94.0423 38.3091C90.2842 40.4492 82.1742 54.8979 76.1326 70.2988C65.739 96.6873 60.066 118.437 61.3153 126.987C62.1959 132.886 64.0391 130.889 65.5137 122.564C66.6196 115.857 70.6746 102.729 78.8564 79.2179C85.707 59.3932 89.3217 50.8428 93.817 43.47C97.1348 37.8688 97.2167 36.3942 94.0423 38.3091Z" fill="#FDFEFD"/>
<path d="M105.982 46.2769C105.982 48.1201 118.291 61.0942 120.062 61.0942C122.346 61.0942 121.691 58.8106 118.148 54.3153C115.27 50.6289 108.194 44.874 106.576 44.874C106.208 44.874 105.982 45.4679 105.982 46.2769Z" fill="#FDFEFD"/>
<path d="M8.69189 80.9182C8.69189 81.7271 11.1188 84.451 14.8052 87.697C18.1229 90.6462 24.4615 96.5342 28.8852 100.814C36.8417 108.556 39.7908 109.877 35.5924 103.835C33.9745 101.552 25.721 93.0116 21.666 89.4686C16.1364 84.6762 11.7229 81.0615 10.3917 80.3242C8.91717 79.587 8.69189 79.6689 8.69189 80.9182Z" fill="#FDFEFD"/>
<path d="M100.688 88.6485C98.1078 90.7887 92.865 96.0315 89.0352 100.23C76.655 113.644 74.1462 117.105 76.7267 117.105C77.761 117.105 101.272 93.2258 104.59 88.8021C108.645 83.3442 107.027 83.2725 100.688 88.6485Z" fill="#FDFEFD"/>
</g>
<defs>
<clipPath id="clip0_1_293">
<rect width="137" height="131" fill="white"/>
</clipPath>
</defs>
</svg>
